BenchTwelve Medium-bold.ufo
<glyph name="exclam" format="1">
  <advance width="648"/>
  <unicode hex="0021"/>
  <outline>
    <contour>
      <point x="218" y="0" type="curve" smooth="yes"/>
      <point x="427" y="0" type="line" smooth="yes"/>
      <point x="470" y="0"/>
      <point x="497" y="27"/>
      <point x="497" y="70" type="curve" smooth="yes"/>
      <point x="497" y="219" type="line" smooth="yes"/>
      <point x="497" y="262"/>
      <point x="470" y="289"/>
      <point x="427" y="289" type="curve" smooth="yes"/>
      <point x="218" y="289" type="line" smooth="yes"/>
      <point x="175" y="289"/>
      <point x="149" y="262"/>
      <point x="149" y="219" type="curve" smooth="yes"/>
      <point x="149" y="70" type="line" smooth="yes"/>
      <point x="149" y="27"/>
      <point x="175" y="0"/>
    </contour>
    <contour>
      <point x="304" y="461" type="curve" smooth="yes"/>
      <point x="355" y="461" type="line" smooth="yes"/>
      <point x="398" y="461"/>
      <point x="406" y="489"/>
      <point x="410" y="531" type="curve" smooth="yes"/>
      <point x="493" y="1378" type="line"/>
      <point x="495" y="1421"/>
      <point x="466" y="1467"/>
      <point x="423" y="1467" type="curve" smooth="yes"/>
      <point x="231" y="1467" type="line" smooth="yes"/>
      <point x="188" y="1467"/>
      <point x="159" y="1440"/>
      <point x="161" y="1397" type="curve"/>
      <point x="249" y="531" type="line" smooth="yes"/>
      <point x="253" y="489"/>
      <point x="261" y="461"/>
    </contour>
  </outline>
</glyph>
<glyph name="numbersign" format="1">
  <advance width="1748"/>
  <unicode hex="0023"/>
  <outline>
    <contour>
      <point x="247" y="-205" type="curve" smooth="yes"/>
      <point x="385" y="-205" type="line" smooth="yes"/>
      <point x="407" y="-205"/>
      <point x="427" y="-191"/>
      <point x="435" y="-170" type="curve"/>
      <point x="568" y="400" type="line"/>
      <point x="1011" y="400" type="line"/>
      <point x="878" y="-170" type="line"/>
      <point x="872" y="-187"/>
      <point x="884" y="-205"/>
      <point x="902" y="-205" type="curve" smooth="yes"/>
      <point x="1040" y="-205" type="line" smooth="yes"/>
      <point x="1062" y="-205"/>
      <point x="1082" y="-191"/>
      <point x="1090" y="-170" type="curve"/>
      <point x="1223" y="400" type="line"/>
      <point x="1471" y="400" type="line" smooth="yes"/>
      <point x="1514" y="400"/>
      <point x="1538" y="414"/>
      <point x="1538" y="457" type="curve" smooth="yes"/>
      <point x="1538" y="528" type="line" smooth="yes"/>
      <point x="1538" y="571"/>
      <point x="1514" y="585"/>
      <point x="1471" y="585" type="curve" smooth="yes"/>
      <point x="1266" y="585" type="line"/>
      <point x="1321" y="820" type="line"/>
      <point x="1546" y="820" type="line" smooth="yes"/>
      <point x="1589" y="820"/>
      <point x="1613" y="834"/>
      <point x="1613" y="877" type="curve" smooth="yes"/>
      <point x="1613" y="949" type="line" smooth="yes"/>
      <point x="1613" y="992"/>
      <point x="1589" y="1006"/>
      <point x="1546" y="1006" type="curve" smooth="yes"/>
      <point x="1365" y="1006" type="line"/>
      <point x="1507" y="1612" type="line"/>
      <point x="1513" y="1629"/>
      <point x="1501" y="1647"/>
      <point x="1483" y="1647" type="curve" smooth="yes"/>
      <point x="1345" y="1647" type="line" smooth="yes"/>
      <point x="1323" y="1647"/>
      <point x="1303" y="1633"/>
      <point x="1295" y="1612" type="curve"/>
      <point x="1153" y="1006" type="line"/>
      <point x="710" y="1006" type="line"/>
      <point x="852" y="1612" type="line"/>
      <point x="858" y="1629"/>
      <point x="846" y="1647"/>
      <point x="828" y="1647" type="curve" smooth="yes"/>
      <point x="690" y="1647" type="line" smooth="yes"/>
      <point x="668" y="1647"/>
      <point x="648" y="1633"/>
      <point x="640" y="1612" type="curve"/>
      <point x="498" y="1006" type="line"/>
      <point x="278" y="1006" type="line" smooth="yes"/>
      <point x="235" y="1006"/>
      <point x="211" y="992"/>
      <point x="211" y="949" type="curve" smooth="yes"/>
      <point x="211" y="877" type="line" smooth="yes"/>
      <point x="211" y="834"/>
      <point x="235" y="820"/>
      <point x="278" y="820" type="curve" smooth="yes"/>
      <point x="454" y="820" type="line"/>
      <point x="399" y="585" type="line"/>
      <point x="203" y="585" type="line" smooth="yes"/>
      <point x="160" y="585"/>
      <point x="136" y="571"/>
      <point x="136" y="528" type="curve" smooth="yes"/>
      <point x="136" y="457" type="line" smooth="yes"/>
      <point x="136" y="414"/>
      <point x="160" y="400"/>
      <point x="203" y="400" type="curve" smooth="yes"/>
      <point x="356" y="400" type="line"/>
      <point x="223" y="-170" type="line"/>
      <point x="217" y="-187"/>
      <point x="229" y="-205"/>
    </contour>
    <contour>
      <point x="611" y="585" type="line"/>
      <point x="666" y="820" type="line"/>
      <point x="1109" y="820" type="line"/>
      <point x="1054" y="585" type="line"/>
    </contour>
  </outline>
</glyph>
<glyph name="ampersand" format="1">
  <advance width="2668"/>
  <unicode hex="0026"/>
  <outline>
    <contour>
      <point x="2167" y="-41" type="curve" smooth="yes"/>
      <point x="2283" y="-41"/>
      <point x="2384" y="-26"/>
      <point x="2469" y="3" type="curve" smooth="yes"/>
      <point x="2510" y="17"/>
      <point x="2535" y="40"/>
      <point x="2527" y="82" type="curve" smooth="yes"/>
      <point x="2520" y="153" type="line" smooth="yes"/>
      <point x="2512" y="190"/>
      <point x="2498" y="213"/>
      <point x="2446" y="197" type="curve" smooth="yes"/>
      <point x="2383" y="178"/>
      <point x="2304" y="161"/>
      <point x="2231" y="161" type="curve" smooth="yes"/>
      <point x="2085" y="161"/>
      <point x="1998" y="212"/>
      <point x="1998" y="350" type="curve" smooth="yes"/>
      <point x="1998" y="615" type="line" smooth="yes"/>
      <point x="1998" y="635"/>
      <point x="2007" y="645"/>
      <point x="2027" y="645" type="curve" smooth="yes"/>
      <point x="2406" y="645" type="line" smooth="yes"/>
      <point x="2449" y="645"/>
      <point x="2476" y="672"/>
      <point x="2476" y="715" type="curve" smooth="yes"/>
      <point x="2476" y="770" type="line" smooth="yes"/>
      <point x="2476" y="813"/>
      <point x="2449" y="840"/>
      <point x="2406" y="840" type="curve" smooth="yes"/>
      <point x="2027" y="840" type="line" smooth="yes"/>
      <point x="2007" y="840"/>
      <point x="1998" y="850"/>
      <point x="1998" y="870" type="curve" smooth="yes"/>
      <point x="1998" y="1164" type="line" smooth="yes"/>
      <point x="1998" y="1207"/>
      <point x="1971" y="1234"/>
      <point x="1928" y="1234" type="curve" smooth="yes"/>
      <point x="1750" y="1234" type="line" smooth="yes"/>
      <point x="1707" y="1234"/>
      <point x="1686" y="1207"/>
      <point x="1681" y="1164" type="curve"/>
      <point x="1658" y="870" type="line"/>
      <point x="1658" y="850"/>
      <point x="1648" y="840"/>
      <point x="1628" y="840" type="curve" smooth="yes"/>
      <point x="893" y="840" type="line" smooth="yes"/>
      <point x="549" y="840"/>
      <point x="503" y="946"/>
      <point x="516" y="1064" type="curve" smooth="yes"/>
      <point x="524" y="1171"/>
      <point x="616" y="1252"/>
      <point x="988" y="1252" type="curve" smooth="yes"/>
      <point x="1281" y="1252"/>
      <point x="1462" y="1207"/>
      <point x="1497" y="1201" type="curve" smooth="yes"/>
      <point x="1506" y="1199"/>
      <point x="1513" y="1198"/>
      <point x="1520" y="1198" type="curve" smooth="yes"/>
      <point x="1546" y="1198"/>
      <point x="1560" y="1211"/>
      <point x="1564" y="1242" type="curve" smooth="yes"/>
      <point x="1574" y="1346" type="line" smooth="yes"/>
      <point x="1575" y="1351"/>
      <point x="1575" y="1355"/>
      <point x="1575" y="1359" type="curve" smooth="yes"/>
      <point x="1575" y="1389"/>
      <point x="1559" y="1406"/>
      <point x="1522" y="1416" type="curve"/>
      <point x="1423" y="1443"/>
      <point x="1179" y="1475"/>
      <point x="994" y="1475" type="curve" smooth="yes"/>
      <point x="389" y="1475"/>
      <point x="144" y="1336"/>
      <point x="144" y="1056" type="curve" smooth="yes"/>
      <point x="144" y="878"/>
      <point x="265" y="764"/>
      <point x="472" y="740" type="curve"/>
      <point x="269" y="718"/>
      <point x="161" y="578"/>
      <point x="161" y="400" type="curve" smooth="yes"/>
      <point x="161" y="121"/>
      <point x="399" y="-40"/>
      <point x="1004" y="-40" type="curve" smooth="yes"/>
      <point x="1368" y="-40"/>
      <point x="1638" y="50"/>
      <point x="1766" y="93" type="curve"/>
      <point x="1855" y="4"/>
      <point x="1995" y="-41"/>
    </contour>
    <contour>
      <point x="1011" y="182" type="curve" smooth="yes"/>
      <point x="740" y="182"/>
      <point x="545" y="226"/>
      <point x="532" y="373" type="curve" smooth="yes"/>
      <point x="519" y="493"/>
      <point x="538" y="642"/>
      <point x="885" y="645" type="curve" smooth="yes"/>
      <point x="1628" y="645" type="line" smooth="yes"/>
      <point x="1648" y="645"/>
      <point x="1658" y="635"/>
      <point x="1658" y="615" type="curve" smooth="yes"/>
      <point x="1658" y="385" type="line" smooth="yes"/>
      <point x="1658" y="350"/>
      <point x="1660" y="317"/>
      <point x="1666" y="286" type="curve"/>
      <point x="1553" y="250"/>
      <point x="1317" y="182"/>
    </contour>
  </outline>
</glyph>
<glyph name="parenright" format="1">
  <advance width="897"/>
  <unicode hex="0029"/>
  <outline>
    <contour>
      <point x="194" y="-143" type="curve" smooth="yes"/>
      <point x="608" y="-75"/>
      <point x="755" y="297"/>
      <point x="755" y="698" type="curve" smooth="yes"/>
      <point x="755" y="1098"/>
      <point x="608" y="1471"/>
      <point x="194" y="1540" type="curve" smooth="yes"/>
      <point x="155" y="1547"/>
      <point x="117" y="1508"/>
      <point x="117" y="1470" type="curve" smooth="yes"/>
      <point x="117" y="1428" type="line" smooth="yes"/>
      <point x="117" y="1359"/>
      <point x="152" y="1352"/>
      <point x="214" y="1321" type="curve" smooth="yes"/>
      <point x="346" y="1255"/>
      <point x="457" y="1095"/>
      <point x="457" y="698" type="curve" smooth="yes"/>
      <point x="457" y="302"/>
      <point x="347" y="143"/>
      <point x="214" y="77" type="curve" smooth="yes"/>
      <point x="152" y="47"/>
      <point x="117" y="40"/>
      <point x="117" y="-29" type="curve" smooth="yes"/>
      <point x="117" y="-73" type="line" smooth="yes"/>
      <point x="117" y="-111"/>
      <point x="155" y="-150"/>
    </contour>
  </outline>
</glyph>
<glyph name="slash" format="1">
  <advance width="1189"/>
  <unicode hex="002F"/>
  <outline>
    <contour>
      <point x="172" y="-230" type="curve"/>
      <point x="178" y="-230"/>
      <point x="321" y="-230"/>
      <point x="322" y="-230" type="curve"/>
      <point x="361" y="-230"/>
      <point x="375" y="-211"/>
      <point x="386" y="-181" type="curve" smooth="yes"/>
      <point x="1064" y="1577" type="line" smooth="yes"/>
      <point x="1080" y="1621"/>
      <point x="1063" y="1647"/>
      <point x="1028" y="1647" type="curve" smooth="yes"/>
      <point x="1021" y="1647"/>
      <point x="860" y="1647"/>
      <point x="860" y="1647" type="curve" smooth="yes"/>
      <point x="844" y="1647"/>
      <point x="822" y="1638"/>
      <point x="812" y="1611" type="curve" smooth="yes"/>
      <point x="123" y="-181" type="line" smooth="yes"/>
      <point x="111" y="-215"/>
      <point x="139" y="-228"/>
    </contour>
  </outline>
</glyph>
<glyph name="one" format="1">
  <advance width="1001"/>
  <unicode hex="0031"/>
  <outline>
    <contour>
      <point x="529" y="0" type="curve" smooth="yes"/>
      <point x="772" y="0" type="line" smooth="yes"/>
      <point x="815" y="0"/>
      <point x="841" y="27"/>
      <point x="841" y="70" type="curve" smooth="yes"/>
      <point x="841" y="1368" type="line" smooth="yes"/>
      <point x="841" y="1411"/>
      <point x="815" y="1438"/>
      <point x="772" y="1438" type="curve"/>
      <point x="169" y="1378" type="line"/>
      <point x="126" y="1378"/>
      <point x="99" y="1351"/>
      <point x="99" y="1308" type="curve" smooth="yes"/>
      <point x="99" y="1215" type="line" smooth="yes"/>
      <point x="99" y="1172"/>
      <point x="126" y="1145"/>
      <point x="169" y="1145" type="curve"/>
      <point x="422" y="1171" type="line"/>
      <point x="442" y="1171"/>
      <point x="459" y="1154"/>
      <point x="459" y="1134" type="curve" smooth="yes"/>
      <point x="459" y="70" type="line" smooth="yes"/>
      <point x="459" y="27"/>
      <point x="486" y="0"/>
    </contour>
  </outline>
</glyph>
<glyph name="four" format="1">
  <advance width="1801"/>
  <unicode hex="0034"/>
  <outline>
    <contour>
      <point x="1151" y="-53" type="curve" smooth="yes"/>
      <point x="1315" y="-53" type="line" smooth="yes"/>
      <point x="1358" y="-53"/>
      <point x="1384" y="-26"/>
      <point x="1384" y="17" type="curve" smooth="yes"/>
      <point x="1384" y="244" type="line"/>
      <point x="1608" y="244" type="line" smooth="yes"/>
      <point x="1651" y="244"/>
      <point x="1678" y="271"/>
      <point x="1678" y="314" type="curve" smooth="yes"/>
      <point x="1678" y="411" type="line" smooth="yes"/>
      <point x="1678" y="454"/>
      <point x="1651" y="481"/>
      <point x="1608" y="481" type="curve" smooth="yes"/>
      <point x="1384" y="481" type="line"/>
      <point x="1384" y="1368" type="line" smooth="yes"/>
      <point x="1384" y="1411"/>
      <point x="1358" y="1438"/>
      <point x="1315" y="1438" type="curve" smooth="yes"/>
      <point x="1151" y="1438" type="line" smooth="yes"/>
      <point x="1108" y="1438"/>
      <point x="1081" y="1411"/>
      <point x="1081" y="1368" type="curve" smooth="yes"/>
      <point x="1081" y="481" type="line"/>
      <point x="587" y="481" type="line" smooth="yes"/>
      <point x="569" y="481"/>
      <point x="556" y="492"/>
      <point x="556" y="508" type="curve" smooth="yes"/>
      <point x="556" y="510"/>
      <point x="556" y="512"/>
      <point x="557" y="515" type="curve" smooth="yes"/>
      <point x="796" y="1368" type="line" smooth="yes"/>
      <point x="798" y="1373"/>
      <point x="799" y="1378"/>
      <point x="799" y="1382" type="curve" smooth="yes"/>
      <point x="799" y="1416"/>
      <point x="764" y="1438"/>
      <point x="726" y="1438" type="curve" smooth="yes"/>
      <point x="517" y="1438" type="line" smooth="yes"/>
      <point x="474" y="1438"/>
      <point x="460" y="1410"/>
      <point x="447" y="1368" type="curve"/>
      <point x="125" y="314" type="line" smooth="yes"/>
      <point x="123" y="309"/>
      <point x="122" y="305"/>
      <point x="122" y="300" type="curve" smooth="yes"/>
      <point x="122" y="266"/>
      <point x="157" y="244"/>
      <point x="194" y="244" type="curve" smooth="yes"/>
      <point x="1081" y="244" type="line"/>
      <point x="1081" y="17" type="line" smooth="yes"/>
      <point x="1081" y="-26"/>
      <point x="1108" y="-53"/>
    </contour>
  </outline>
</glyph>
<glyph name="seven" format="1">
  <advance width="1215"/>
  <unicode hex="0037"/>
  <outline>
    <contour>
      <point x="415" y="0" type="curve" smooth="yes"/>
      <point x="644" y="0" type="line" smooth="yes"/>
      <point x="687" y="0"/>
      <point x="704" y="28"/>
      <point x="714" y="70" type="curve"/>
      <point x="1108" y="1368" type="line"/>
      <point x="1108" y="1411"/>
      <point x="1081" y="1438"/>
      <point x="1038" y="1438" type="curve" smooth="yes"/>
      <point x="163" y="1438" type="line" smooth="yes"/>
      <point x="120" y="1438"/>
      <point x="94" y="1411"/>
      <point x="94" y="1368" type="curve" smooth="yes"/>
      <point x="94" y="1275" type="line" smooth="yes"/>
      <point x="94" y="1232"/>
      <point x="120" y="1205"/>
      <point x="163" y="1205" type="curve" smooth="yes"/>
      <point x="654" y="1205" type="line" smooth="yes"/>
      <point x="674" y="1205"/>
      <point x="688" y="1190"/>
      <point x="683" y="1171" type="curve"/>
      <point x="345" y="70" type="line"/>
      <point x="336" y="28"/>
      <point x="372" y="0"/>
    </contour>
  </outline>
</glyph>
<glyph name="eight" format="1">
  <advance width="2046"/>
  <unicode hex="0038"/>
  <outline>
    <contour>
      <point x="1024" y="-41" type="curve" smooth="yes"/>
      <point x="1485" y="-41"/>
      <point x="1910" y="27"/>
      <point x="1910" y="405" type="curve" smooth="yes"/>
      <point x="1910" y="573"/>
      <point x="1764" y="685"/>
      <point x="1592" y="731" type="curve"/>
      <point x="1703" y="770"/>
      <point x="1811" y="903"/>
      <point x="1811" y="1045" type="curve" smooth="yes"/>
      <point x="1811" y="1382"/>
      <point x="1468" y="1474"/>
      <point x="1024" y="1474" type="curve" smooth="yes"/>
      <point x="581" y="1474"/>
      <point x="213" y="1382"/>
      <point x="213" y="1073" type="curve" smooth="yes"/>
      <point x="213" y="920"/>
      <point x="335" y="814"/>
      <point x="425" y="768" type="curve"/>
      <point x="289" y="715"/>
      <point x="138" y="584"/>
      <point x="138" y="416" type="curve" smooth="yes"/>
      <point x="138" y="14"/>
      <point x="564" y="-41"/>
    </contour>
    <contour>
      <point x="1024" y="160" type="curve" smooth="yes"/>
      <point x="682" y="160"/>
      <point x="493" y="209"/>
      <point x="493" y="428" type="curve" smooth="yes"/>
      <point x="493" y="520"/>
      <point x="542" y="618"/>
      <point x="646" y="682" type="curve"/>
      <point x="824" y="657"/>
      <point x="1003" y="630"/>
      <point x="1122" y="615" type="curve" smooth="yes"/>
      <point x="1403" y="578"/>
      <point x="1554" y="537"/>
      <point x="1554" y="406" type="curve" smooth="yes"/>
      <point x="1554" y="208"/>
      <point x="1411" y="160"/>
    </contour>
    <contour>
      <point x="1355" y="796" type="curve"/>
      <point x="1149" y="814"/>
      <point x="906" y="845"/>
      <point x="886" y="848" type="curve" smooth="yes"/>
      <point x="623" y="876"/>
      <point x="559" y="974"/>
      <point x="559" y="1069" type="curve" smooth="yes"/>
      <point x="559" y="1238"/>
      <point x="716" y="1290"/>
      <point x="1024" y="1290" type="curve" smooth="yes"/>
      <point x="1337" y="1290"/>
      <point x="1488" y="1224"/>
      <point x="1488" y="1040" type="curve" smooth="yes"/>
      <point x="1488" y="924"/>
      <point x="1404" y="841"/>
    </contour>
  </outline>
</glyph>
<glyph name="E" format="1">
  <advance width="1868"/>
  <unicode hex="0045"/>
  <outline>
    <contour>
      <point x="934" y="1438" type="move" name="top"/>
    </contour>
    <contour>
      <point x="1681" y="10" type="move" name="ogonek"/>
    </contour>
    <contour>
      <point x="934" y="0" type="move" name="bottom"/>
    </contour>
    <contour>
      <point x="230" y="0" type="curve" smooth="yes"/>
      <point x="1659" y="0" type="line" smooth="yes"/>
      <point x="1702" y="0"/>
      <point x="1729" y="34"/>
      <point x="1729" y="77" type="curve" smooth="yes"/>
      <point x="1729" y="147" type="line" smooth="yes"/>
      <point x="1729" y="190"/>
      <point x="1702" y="223"/>
      <point x="1659" y="223" type="curve" smooth="yes"/>
      <point x="562" y="223" type="line" smooth="yes"/>
      <point x="556" y="223"/>
      <point x="543" y="237"/>
      <point x="543" y="243" type="curve" smooth="yes"/>
      <point x="543" y="620" type="line" smooth="yes"/>
      <point x="543" y="626"/>
      <point x="560" y="640"/>
      <point x="566" y="640" type="curve" smooth="yes"/>
      <point x="1535" y="640" type="line" smooth="yes"/>
      <point x="1578" y="640"/>
      <point x="1605" y="674"/>
      <point x="1605" y="717" type="curve" smooth="yes"/>
      <point x="1605" y="760" type="line" smooth="yes"/>
      <point x="1605" y="803"/>
      <point x="1578" y="837"/>
      <point x="1535" y="837" type="curve" smooth="yes"/>
      <point x="562" y="837" type="line" smooth="yes"/>
      <point x="556" y="837"/>
      <point x="543" y="857"/>
      <point x="543" y="863" type="curve" smooth="yes"/>
      <point x="543" y="1188" type="line" smooth="yes"/>
      <point x="543" y="1208"/>
      <point x="551" y="1213"/>
      <point x="571" y="1213" type="curve" smooth="yes"/>
      <point x="1640" y="1213" type="line" smooth="yes"/>
      <point x="1683" y="1213"/>
      <point x="1709" y="1247"/>
      <point x="1709" y="1290" type="curve" smooth="yes"/>
      <point x="1709" y="1361" type="line" smooth="yes"/>
      <point x="1709" y="1404"/>
      <point x="1683" y="1438"/>
      <point x="1640" y="1438" type="curve" smooth="yes"/>
      <point x="230" y="1438" type="line" smooth="yes"/>
      <point x="187" y="1438"/>
      <point x="160" y="1404"/>
      <point x="160" y="1361" type="curve" smooth="yes"/>
      <point x="160" y="70" type="line" smooth="yes"/>
      <point x="160" y="27"/>
      <point x="187" y="0"/>
    </contour>
  </outline>
</glyph>
<glyph name="Q" format="1">
  <advance width="2343"/>
  <unicode hex="0051"/>
  <outline>
    <contour>
      <point x="1643" y="-513" type="curve"/>
      <point x="1760" y="-462" type="line"/>
      <point x="1797" y="-442"/>
      <point x="1818" y="-404"/>
      <point x="1795" y="-366" type="curve"/>
      <point x="1511" y="144" type="line"/>
      <point x="1231" y="76" type="line"/>
      <point x="1544" y="-491" type="line"/>
      <point x="1566" y="-528"/>
      <point x="1604" y="-533"/>
    </contour>
    <contour>
      <point x="1172" y="197" type="curve" smooth="yes"/>
      <point x="826" y="197"/>
      <point x="536" y="296"/>
      <point x="536" y="724" type="curve" smooth="yes"/>
      <point x="536" y="1101"/>
      <point x="817" y="1241"/>
      <point x="1172" y="1241" type="curve" smooth="yes"/>
      <point x="1528" y="1241"/>
      <point x="1807" y="1101"/>
      <point x="1807" y="724" type="curve" smooth="yes"/>
      <point x="1807" y="296"/>
      <point x="1519" y="197"/>
    </contour>
    <contour>
      <point x="1172" y="-40" type="curve" smooth="yes"/>
      <point x="1651" y="-40"/>
      <point x="2209" y="96"/>
      <point x="2209" y="724" type="curve" smooth="yes"/>
      <point x="2209" y="1305"/>
      <point x="1651" y="1476"/>
      <point x="1172" y="1476" type="curve" smooth="yes"/>
      <point x="693" y="1476"/>
      <point x="134" y="1305"/>
      <point x="134" y="724" type="curve" smooth="yes"/>
      <point x="134" y="96"/>
      <point x="693" y="-40"/>
    </contour>
  </outline>
</glyph>
<glyph name="R" format="1">
  <advance width="2224"/>
  <unicode hex="0052"/>
  <outline>
    <contour>
      <point x="1112" y="1438" type="move" name="top"/>
    </contour>
    <contour>
      <point x="1112" y="0" type="move" name="bottom"/>
    </contour>
    <contour>
      <point x="230" y="0" type="curve" smooth="yes"/>
      <point x="460" y="0" type="line" smooth="yes"/>
      <point x="503" y="0"/>
      <point x="530" y="27"/>
      <point x="530" y="70" type="curve" smooth="yes"/>
      <point x="530" y="503" type="line" smooth="yes"/>
      <point x="530" y="509"/>
      <point x="546" y="525"/>
      <point x="552" y="525" type="curve" smooth="yes"/>
      <point x="1224" y="525" type="line" smooth="yes"/>
      <point x="1322" y="525"/>
      <point x="1496" y="524"/>
      <point x="1576" y="361" type="curve" smooth="yes"/>
      <point x="1590" y="335"/>
      <point x="1683" y="96"/>
      <point x="1688" y="68" type="curve" smooth="yes"/>
      <point x="1707" y="24"/>
      <point x="1719" y="0"/>
      <point x="1768" y="0" type="curve" smooth="yes"/>
      <point x="2014" y="0" type="line" smooth="yes"/>
      <point x="2053" y="0"/>
      <point x="2085" y="25"/>
      <point x="2069" y="61" type="curve" smooth="yes"/>
      <point x="2069" y="68"/>
      <point x="1976" y="280"/>
      <point x="1974" y="298" type="curve" smooth="yes"/>
      <point x="1910" y="494"/>
      <point x="1799" y="575"/>
      <point x="1687" y="601" type="curve" smooth="yes"/>
      <point x="1683" y="602"/>
      <point x="1682" y="604"/>
      <point x="1682" y="606" type="curve" smooth="yes"/>
      <point x="1682" y="608"/>
      <point x="1685" y="608"/>
      <point x="1688" y="609" type="curve" smooth="yes"/>
      <point x="1903" y="649"/>
      <point x="2049" y="747"/>
      <point x="2049" y="1013" type="curve" smooth="yes"/>
      <point x="2049" y="1438"/>
      <point x="1644" y="1438"/>
      <point x="1124" y="1438" type="curve" smooth="yes"/>
      <point x="230" y="1438" type="line" smooth="yes"/>
      <point x="187" y="1438"/>
      <point x="160" y="1411"/>
      <point x="160" y="1368" type="curve" smooth="yes"/>
      <point x="160" y="70" type="line" smooth="yes"/>
      <point x="160" y="27"/>
      <point x="187" y="0"/>
    </contour>
    <contour>
      <point x="552" y="737" type="line"/>
      <point x="546" y="737"/>
      <point x="530" y="751"/>
      <point x="530" y="757" type="curve" smooth="yes"/>
      <point x="530" y="1191" type="line" smooth="yes"/>
      <point x="530" y="1197"/>
      <point x="547" y="1212"/>
      <point x="552" y="1212" type="curve" smooth="yes"/>
      <point x="1094" y="1212" type="line" smooth="yes"/>
      <point x="1444" y="1212"/>
      <point x="1676" y="1192"/>
      <point x="1676" y="980" type="curve" smooth="yes"/>
      <point x="1676" y="745"/>
      <point x="1537" y="737"/>
      <point x="1158" y="737" type="curve" smooth="yes"/>
    </contour>
  </outline>
</glyph>
<glyph name="bracketright" format="1">
  <advance width="1126"/>
  <unicode hex="005D"/>
  <outline>
    <contour>
      <point x="197" y="-107" type="curve" smooth="yes"/>
      <point x="889" y="-107" type="line" smooth="yes"/>
      <point x="932" y="-107"/>
      <point x="966" y="-73"/>
      <point x="966" y="-30" type="curve" smooth="yes"/>
      <point x="966" y="1479" type="line" smooth="yes"/>
      <point x="966" y="1522"/>
      <point x="932" y="1556"/>
      <point x="889" y="1556" type="curve" smooth="yes"/>
      <point x="197" y="1556" type="line" smooth="yes"/>
      <point x="154" y="1556"/>
      <point x="128" y="1536"/>
      <point x="128" y="1493" type="curve" smooth="yes"/>
      <point x="128" y="1390" type="line" smooth="yes"/>
      <point x="128" y="1347"/>
      <point x="154" y="1327"/>
      <point x="197" y="1327" type="curve" smooth="yes"/>
      <point x="586" y="1327" type="line" smooth="yes"/>
      <point x="606" y="1327"/>
      <point x="616" y="1317"/>
      <point x="616" y="1297" type="curve" smooth="yes"/>
      <point x="616" y="159" type="line" smooth="yes"/>
      <point x="616" y="139"/>
      <point x="606" y="129"/>
      <point x="586" y="129" type="curve" smooth="yes"/>
      <point x="197" y="129" type="line" smooth="yes"/>
      <point x="154" y="129"/>
      <point x="128" y="109"/>
      <point x="128" y="66" type="curve" smooth="yes"/>
      <point x="128" y="-44" type="line" smooth="yes"/>
      <point x="128" y="-87"/>
      <point x="154" y="-107"/>
    </contour>
  </outline>
</glyph>
<glyph name="asciicircum" format="1">
  <advance width="1299"/>
  <unicode hex="005E"/>
  <outline>
    <contour>
      <point x="49" y="201" type="curve" smooth="yes"/>
      <point x="226" y="201" type="line" smooth="yes"/>
      <point x="272" y="201"/>
      <point x="301" y="229"/>
      <point x="321" y="270" type="curve" smooth="yes"/>
      <point x="610" y="895" type="line" smooth="yes"/>
      <point x="613" y="902"/>
      <point x="620" y="905"/>
      <point x="626" y="905" type="curve" smooth="yes"/>
      <point x="632" y="905"/>
      <point x="638" y="902"/>
      <point x="642" y="895" type="curve" smooth="yes"/>
      <point x="943" y="270" type="line" smooth="yes"/>
      <point x="962" y="229"/>
      <point x="992" y="201"/>
      <point x="1038" y="201" type="curve" smooth="yes"/>
      <point x="1211" y="201" type="line" smooth="yes"/>
      <point x="1238" y="201"/>
      <point x="1257" y="223"/>
      <point x="1257" y="247" type="curve" smooth="yes"/>
      <point x="1257" y="255"/>
      <point x="1256" y="262"/>
      <point x="1252" y="269" type="curve" smooth="yes"/>
      <point x="819" y="1139" type="line" smooth="yes"/>
      <point x="797" y="1180"/>
      <point x="767" y="1207"/>
      <point x="720" y="1207" type="curve" smooth="yes"/>
      <point x="544" y="1207" type="line" smooth="yes"/>
      <point x="497" y="1207"/>
      <point x="466" y="1180"/>
      <point x="444" y="1140" type="curve" smooth="yes"/>
      <point x="9" y="268" type="line" smooth="yes"/>
      <point x="5" y="261"/>
      <point x="3" y="253"/>
      <point x="3" y="246" type="curve" smooth="yes"/>
      <point x="3" y="223"/>
      <point x="22" y="201"/>
    </contour>
  </outline>
</glyph>
<glyph name="f" format="1">
  <advance width="1345"/>
  <unicode hex="0066"/>
  <outline>
    <contour>
      <point x="440" y="0" type="curve" smooth="yes"/>
      <point x="626" y="0" type="line" smooth="yes"/>
      <point x="669" y="0"/>
      <point x="703" y="34"/>
      <point x="703" y="77" type="curve" smooth="yes"/>
      <point x="703" y="800" type="line" smooth="yes"/>
      <point x="703" y="820"/>
      <point x="706" y="837"/>
      <point x="726" y="837" type="curve" smooth="yes"/>
      <point x="1120" y="837" type="line" smooth="yes"/>
      <point x="1163" y="837"/>
      <point x="1187" y="846"/>
      <point x="1187" y="889" type="curve" smooth="yes"/>
      <point x="1187" y="951" type="line" smooth="yes"/>
      <point x="1187" y="994"/>
      <point x="1163" y="1006"/>
      <point x="1120" y="1006" type="curve" smooth="yes"/>
      <point x="713" y="1006" type="line" smooth="yes"/>
      <point x="705" y="1006"/>
      <point x="703" y="1013"/>
      <point x="703" y="1016" type="curve" smooth="yes"/>
      <point x="703" y="1061" type="line" smooth="yes"/>
      <point x="703" y="1185"/>
      <point x="760" y="1279"/>
      <point x="963" y="1279" type="curve" smooth="yes"/>
      <point x="1029" y="1279"/>
      <point x="1165" y="1252"/>
      <point x="1170" y="1252" type="curve" smooth="yes"/>
      <point x="1204" y="1252"/>
      <point x="1211" y="1260"/>
      <point x="1211" y="1297" type="curve" smooth="yes"/>
      <point x="1211" y="1384" type="line" smooth="yes"/>
      <point x="1211" y="1412"/>
      <point x="1189" y="1431"/>
      <point x="1161" y="1438" type="curve"/>
      <point x="1115" y="1446"/>
      <point x="988" y="1475"/>
      <point x="868" y="1475" type="curve" smooth="yes"/>
      <point x="618" y="1475"/>
      <point x="371" y="1376"/>
      <point x="364" y="1042" type="curve" smooth="yes"/>
      <point x="364" y="1020"/>
      <point x="363" y="1006"/>
      <point x="341" y="1006" type="curve" smooth="yes"/>
      <point x="191" y="1006" type="line" smooth="yes"/>
      <point x="148" y="1006"/>
      <point x="124" y="988"/>
      <point x="124" y="945" type="curve" smooth="yes"/>
      <point x="124" y="889" type="line" smooth="yes"/>
      <point x="124" y="846"/>
      <point x="148" y="837"/>
      <point x="191" y="837" type="curve" smooth="yes"/>
      <point x="343" y="837" type="line" smooth="yes"/>
      <point x="363" y="837"/>
      <point x="363" y="820"/>
      <point x="363" y="800" type="curve" smooth="yes"/>
      <point x="363" y="77" type="line" smooth="yes"/>
      <point x="363" y="34"/>
      <point x="397" y="0"/>
    </contour>
  </outline>
</glyph>
<glyph name="i" format="1">
  <advance width="652"/>
  <unicode hex="0069"/>
  <outline>
    <contour>
      <point x="230" y="0" type="curve" smooth="yes"/>
      <point x="422" y="0" type="line" smooth="yes"/>
      <point x="465" y="0"/>
      <point x="492" y="27"/>
      <point x="492" y="70" type="curve" smooth="yes"/>
      <point x="492" y="936" type="line" smooth="yes"/>
      <point x="492" y="979"/>
      <point x="465" y="1006"/>
      <point x="422" y="1006" type="curve" smooth="yes"/>
      <point x="230" y="1006" type="line" smooth="yes"/>
      <point x="187" y="1006"/>
      <point x="160" y="979"/>
      <point x="160" y="936" type="curve" smooth="yes"/>
      <point x="160" y="70" type="line" smooth="yes"/>
      <point x="160" y="27"/>
      <point x="187" y="0"/>
    </contour>
    <contour>
      <point x="230" y="1171" type="curve" smooth="yes"/>
      <point x="422" y="1171" type="line" smooth="yes"/>
      <point x="465" y="1171"/>
      <point x="492" y="1198"/>
      <point x="492" y="1241" type="curve" smooth="yes"/>
      <point x="492" y="1378" type="line" smooth="yes"/>
      <point x="492" y="1421"/>
      <point x="465" y="1448"/>
      <point x="422" y="1448" type="curve" smooth="yes"/>
      <point x="230" y="1448" type="line" smooth="yes"/>
      <point x="187" y="1448"/>
      <point x="160" y="1421"/>
      <point x="160" y="1378" type="curve" smooth="yes"/>
      <point x="160" y="1241" type="line" smooth="yes"/>
      <point x="160" y="1198"/>
      <point x="187" y="1171"/>
    </contour>
  </outline>
</glyph>
<glyph name="j" format="1">
  <advance width="914"/>
  <unicode hex="006A"/>
  <outline>
    <contour>
      <point x="348" y="-402" type="curve"/>
      <point x="537" y="-402"/>
      <point x="752" y="-311"/>
      <point x="752" y="60" type="curve" smooth="yes"/>
      <point x="752" y="183"/>
      <point x="753" y="826"/>
      <point x="754" y="932" type="curve" smooth="yes"/>
      <point x="754" y="958"/>
      <point x="744" y="1006"/>
      <point x="677" y="1006" type="curve" smooth="yes"/>
      <point x="650" y="1006"/>
      <point x="523" y="1006"/>
      <point x="503" y="1006" type="curve" smooth="yes"/>
      <point x="440" y="1006"/>
      <point x="421" y="973"/>
      <point x="421" y="930" type="curve" smooth="yes"/>
      <point x="421" y="895"/>
      <point x="421" y="71"/>
      <point x="421" y="54" type="curve" smooth="yes"/>
      <point x="421" y="-36"/>
      <point x="428" y="-182"/>
      <point x="252" y="-182" type="curve" smooth="yes"/>
      <point x="177" y="-182"/>
      <point x="228" y="-182"/>
      <point x="143" y="-182" type="curve" smooth="yes"/>
      <point x="64" y="-182"/>
      <point x="50" y="-219"/>
      <point x="50" y="-246" type="curve" smooth="yes"/>
      <point x="50" y="-278"/>
      <point x="50" y="-293"/>
      <point x="50" y="-311" type="curve" smooth="yes"/>
      <point x="50" y="-336"/>
      <point x="57" y="-385"/>
      <point x="125" y="-396" type="curve" smooth="yes"/>
      <point x="161" y="-402"/>
      <point x="293" y="-406"/>
    </contour>
    <contour>
      <point x="486" y="1171" type="curve" smooth="yes"/>
      <point x="678" y="1171" type="line" smooth="yes"/>
      <point x="721" y="1171"/>
      <point x="748" y="1198"/>
      <point x="748" y="1241" type="curve" smooth="yes"/>
      <point x="748" y="1378" type="line" smooth="yes"/>
      <point x="748" y="1421"/>
      <point x="721" y="1448"/>
      <point x="678" y="1448" type="curve" smooth="yes"/>
      <point x="486" y="1448" type="line" smooth="yes"/>
      <point x="443" y="1448"/>
      <point x="416" y="1421"/>
      <point x="416" y="1378" type="curve" smooth="yes"/>
      <point x="416" y="1241" type="line" smooth="yes"/>
      <point x="416" y="1198"/>
      <point x="443" y="1171"/>
    </contour>
  </outline>
</glyph>
<glyph name="r" format="1">
  <advance width="1134"/>
  <unicode hex="0072"/>
  <outline>
    <contour>
      <point x="570" y="1006" type="move" name="top"/>
    </contour>
    <contour>
      <point x="570" y="0" type="move" name="bottom"/>
    </contour>
    <contour>
      <point x="222" y="0" type="curve" smooth="yes"/>
      <point x="415" y="0" type="line" smooth="yes"/>
      <point x="458" y="0"/>
      <point x="485" y="27"/>
      <point x="485" y="70" type="curve" smooth="yes"/>
      <point x="485" y="557" type="line" smooth="yes"/>
      <point x="485" y="680"/>
      <point x="631" y="820"/>
      <point x="834" y="820" type="curve" smooth="yes"/>
      <point x="952" y="820" type="line" smooth="yes"/>
      <point x="993" y="820"/>
      <point x="1012" y="845"/>
      <point x="1012" y="884" type="curve" smooth="yes"/>
      <point x="1012" y="987" type="line" smooth="yes"/>
      <point x="1012" y="1027"/>
      <point x="988" y="1053"/>
      <point x="920" y="1053" type="curve" smooth="yes"/>
      <point x="872" y="1053" type="line" smooth="yes"/>
      <point x="695" y="1052"/>
      <point x="526" y="950"/>
      <point x="432" y="826" type="curve" smooth="yes"/>
      <point x="427" y="819"/>
      <point x="420" y="807"/>
      <point x="412" y="807" type="curve" smooth="yes"/>
      <point x="404" y="807"/>
      <point x="397" y="817"/>
      <point x="394" y="826" type="curve" smooth="yes"/>
      <point x="351" y="942" type="line" smooth="yes"/>
      <point x="335" y="989"/>
      <point x="315" y="1006"/>
      <point x="268" y="1006" type="curve" smooth="yes"/>
      <point x="210" y="1006" type="line" smooth="yes"/>
      <point x="167" y="1006"/>
      <point x="153" y="972"/>
      <point x="153" y="929" type="curve" smooth="yes"/>
      <point x="153" y="70" type="line" smooth="yes"/>
      <point x="153" y="27"/>
      <point x="179" y="0"/>
    </contour>
  </outline>
</glyph>
<glyph name="u" format="1">
  <advance width="1701"/>
  <unicode hex="0075"/>
  <outline>
    <contour>
      <point x="851" y="1006" type="move" name="top"/>
    </contour>
    <contour>
      <point x="1531" y="10" type="move" name="ogonek"/>
    </contour>
    <contour>
      <point x="730" y="-45" type="curve" smooth="yes"/>
      <point x="936" y="-45"/>
      <point x="1140" y="26"/>
      <point x="1270" y="187" type="curve" smooth="yes"/>
      <point x="1276" y="194"/>
      <point x="1283" y="200"/>
      <point x="1291" y="200" type="curve" smooth="yes"/>
      <point x="1299" y="200"/>
      <point x="1302" y="195"/>
      <point x="1307" y="187" type="curve" smooth="yes"/>
      <point x="1352" y="64" type="line" smooth="yes"/>
      <point x="1366" y="18"/>
      <point x="1396" y="0"/>
      <point x="1443" y="0" type="curve" smooth="yes"/>
      <point x="1487" y="0" type="line" smooth="yes"/>
      <point x="1530" y="0"/>
      <point x="1550" y="34"/>
      <point x="1550" y="77" type="curve" smooth="yes"/>
      <point x="1550" y="940" type="line" smooth="yes"/>
      <point x="1550" y="983"/>
      <point x="1523" y="1010"/>
      <point x="1480" y="1010" type="curve" smooth="yes"/>
      <point x="1287" y="1010" type="line" smooth="yes"/>
      <point x="1244" y="1010"/>
      <point x="1218" y="983"/>
      <point x="1218" y="940" type="curve" smooth="yes"/>
      <point x="1218" y="435" type="line" smooth="yes"/>
      <point x="1218" y="302"/>
      <point x="1002" y="154"/>
      <point x="806" y="154" type="curve" smooth="yes"/>
      <point x="619" y="154"/>
      <point x="485" y="238"/>
      <point x="485" y="435" type="curve" smooth="yes"/>
      <point x="485" y="940" type="line" smooth="yes"/>
      <point x="485" y="983"/>
      <point x="458" y="1010"/>
      <point x="415" y="1010" type="curve" smooth="yes"/>
      <point x="215" y="1010" type="line" smooth="yes"/>
      <point x="172" y="1010"/>
      <point x="145" y="983"/>
      <point x="145" y="940" type="curve" smooth="yes"/>
      <point x="145" y="468" type="line" smooth="yes"/>
      <point x="145" y="123"/>
      <point x="400" y="-45"/>
    </contour>
  </outline>
</glyph>
<glyph name="section" format="1">
  <advance width="1672"/>
  <unicode hex="00A7"/>
  <outline>
    <contour>
      <point x="839" y="-41" type="curve" smooth="yes"/>
      <point x="1322" y="-41"/>
      <point x="1524" y="73"/>
      <point x="1524" y="308" type="curve" smooth="yes"/>
      <point x="1524" y="408"/>
      <point x="1490" y="475"/>
      <point x="1428" y="521" type="curve"/>
      <point x="1480" y="575"/>
      <point x="1524" y="648"/>
      <point x="1524" y="730" type="curve" smooth="yes"/>
      <point x="1524" y="1014"/>
      <point x="1246" y="1032"/>
      <point x="878" y="1057" type="curve" smooth="yes"/>
      <point x="501" y="1081"/>
      <point x="445" y="1088"/>
      <point x="445" y="1169" type="curve" smooth="yes"/>
      <point x="445" y="1252"/>
      <point x="565" y="1286"/>
      <point x="859" y="1286" type="curve" smooth="yes"/>
      <point x="1068" y="1286"/>
      <point x="1175" y="1260"/>
      <point x="1286" y="1224" type="curve" smooth="yes"/>
      <point x="1326" y="1211"/>
      <point x="1373" y="1218"/>
      <point x="1390" y="1254" type="curve"/>
      <point x="1413" y="1306" type="line"/>
      <point x="1429" y="1338"/>
      <point x="1412" y="1377"/>
      <point x="1377" y="1391" type="curve" smooth="yes"/>
      <point x="1210" y="1455"/>
      <point x="1043" y="1476"/>
      <point x="813" y="1476" type="curve" smooth="yes"/>
      <point x="576" y="1476"/>
      <point x="156" y="1452"/>
      <point x="156" y="1146" type="curve" smooth="yes"/>
      <point x="156" y="1051"/>
      <point x="203" y="987"/>
      <point x="282" y="943" type="curve"/>
      <point x="208" y="890"/>
      <point x="156" y="813"/>
      <point x="156" y="724" type="curve" smooth="yes"/>
      <point x="156" y="480"/>
      <point x="463" y="444"/>
      <point x="811" y="427" type="curve" smooth="yes"/>
      <point x="1193" y="410"/>
      <point x="1237" y="382"/>
      <point x="1237" y="296" type="curve" smooth="yes"/>
      <point x="1237" y="203"/>
      <point x="1160" y="153"/>
      <point x="882" y="153" type="curve" smooth="yes"/>
      <point x="647" y="153"/>
      <point x="473" y="177"/>
      <point x="285" y="244" type="curve" smooth="yes"/>
      <point x="245" y="259"/>
      <point x="205" y="240"/>
      <point x="186" y="199" type="curve" smooth="yes"/>
      <point x="164" y="152" type="line" smooth="yes"/>
      <point x="149" y="118"/>
      <point x="168" y="73"/>
      <point x="202" y="60" type="curve" smooth="yes"/>
      <point x="393" y="-18"/>
      <point x="645" y="-41"/>
    </contour>
    <contour>
      <point x="1232" y="598" type="curve"/>
      <point x="1136" y="618"/>
      <point x="1012" y="625"/>
      <point x="878" y="635" type="curve" smooth="yes"/>
      <point x="464" y="664"/>
      <point x="426" y="687"/>
      <point x="426" y="757" type="curve" smooth="yes"/>
      <point x="426" y="797"/>
      <point x="444" y="849"/>
      <point x="471" y="886" type="curve"/>
      <point x="563" y="865"/>
      <point x="687" y="854"/>
      <point x="811" y="849" type="curve" smooth="yes"/>
      <point x="1193" y="832"/>
      <point x="1272" y="804"/>
      <point x="1272" y="718" type="curve" smooth="yes"/>
      <point x="1272" y="688"/>
      <point x="1232" y="598"/>
    </contour>
  </outline>
</glyph>
<glyph name="registered" format="1">
  <advance width="1901"/>
  <unicode hex="00AE"/>
  <outline>
    <contour>
      <point x="587" y="387" type="curve" smooth="yes"/>
      <point x="733" y="387" type="line" smooth="yes"/>
      <point x="751" y="387"/>
      <point x="765" y="403"/>
      <point x="765" y="422" type="curve" smooth="yes"/>
      <point x="765" y="620" type="line" smooth="yes"/>
      <point x="765" y="630"/>
      <point x="773" y="638"/>
      <point x="781" y="638" type="curve" smooth="yes"/>
      <point x="1034" y="638" type="line" smooth="yes"/>
      <point x="1089" y="638"/>
      <point x="1104" y="638"/>
      <point x="1124" y="605" type="curve" smooth="yes"/>
      <point x="1154" y="562"/>
      <point x="1163" y="469"/>
      <point x="1173" y="418" type="curve"/>
      <point x="1178" y="394"/>
      <point x="1188" y="387"/>
      <point x="1214" y="387" type="curve" smooth="yes"/>
      <point x="1362" y="387" type="line" smooth="yes"/>
      <point x="1374" y="387"/>
      <point x="1379" y="397"/>
      <point x="1379" y="409" type="curve" smooth="yes"/>
      <point x="1379" y="419"/>
      <point x="1374" y="444"/>
      <point x="1371" y="472" type="curve" smooth="yes"/>
      <point x="1359" y="589"/>
      <point x="1328" y="668"/>
      <point x="1236" y="688" type="curve" smooth="yes"/>
      <point x="1235" y="688"/>
      <point x="1235" y="689"/>
      <point x="1235" y="690" type="curve" smooth="yes"/>
      <point x="1235" y="691"/>
      <point x="1235" y="692"/>
      <point x="1236" y="692" type="curve" smooth="yes"/>
      <point x="1316" y="705"/>
      <point x="1383" y="755"/>
      <point x="1383" y="853" type="curve" smooth="yes"/>
      <point x="1383" y="1047"/>
      <point x="1217" y="1049"/>
      <point x="1006" y="1049" type="curve" smooth="yes"/>
      <point x="587" y="1049" type="line" smooth="yes"/>
      <point x="569" y="1049"/>
      <point x="555" y="1034"/>
      <point x="555" y="1014" type="curve" smooth="yes"/>
      <point x="555" y="422" type="line" smooth="yes"/>
      <point x="555" y="403"/>
      <point x="569" y="387"/>
    </contour>
    <contour>
      <point x="781" y="754" type="line"/>
      <point x="773" y="754"/>
      <point x="765" y="762"/>
      <point x="765" y="771" type="curve" smooth="yes"/>
      <point x="765" y="899" type="line" smooth="yes"/>
      <point x="765" y="908"/>
      <point x="773" y="916"/>
      <point x="781" y="916" type="curve" smooth="yes"/>
      <point x="1030" y="916" type="line" smooth="yes"/>
      <point x="1114" y="916"/>
      <point x="1176" y="914"/>
      <point x="1176" y="834" type="curve" smooth="yes"/>
      <point x="1176" y="789"/>
      <point x="1152" y="754"/>
      <point x="1097" y="754" type="curve" smooth="yes"/>
    </contour>
    <contour>
      <point x="953" y="96" type="curve" smooth="yes"/>
      <point x="482" y="96"/>
      <point x="306" y="427"/>
      <point x="306" y="713" type="curve" smooth="yes"/>
      <point x="306" y="1011"/>
      <point x="482" y="1334"/>
      <point x="953" y="1334" type="curve" smooth="yes"/>
      <point x="1423" y="1334"/>
      <point x="1599" y="1011"/>
      <point x="1599" y="713" type="curve" smooth="yes"/>
      <point x="1599" y="427"/>
      <point x="1423" y="96"/>
    </contour>
    <contour>
      <point x="950" y="-41" type="curve" smooth="yes"/>
      <point x="1494" y="-41"/>
      <point x="1766" y="318"/>
      <point x="1766" y="717" type="curve" smooth="yes"/>
      <point x="1766" y="1116"/>
      <point x="1494" y="1475"/>
      <point x="950" y="1475" type="curve" smooth="yes"/>
      <point x="406" y="1475"/>
      <point x="134" y="1116"/>
      <point x="134" y="717" type="curve" smooth="yes"/>
      <point x="134" y="318"/>
      <point x="406" y="-41"/>
    </contour>
  </outline>
</glyph>
<glyph name="cedilla" format="1">
  <advance width="716"/>
  <unicode hex="00B8"/>
  <outline>
    <contour>
      <point x="413" y="0" type="move" name="_bottom"/>
    </contour>
    <contour>
      <point x="403" y="-580" type="curve" smooth="yes"/>
      <point x="547" y="-580"/>
      <point x="631" y="-493"/>
      <point x="631" y="-315" type="curve" smooth="yes"/>
      <point x="631" y="-204"/>
      <point x="555" y="-94"/>
      <point x="447" y="-94" type="curve" smooth="yes"/>
      <point x="363" y="-94" type="line" smooth="yes"/>
      <point x="350" y="-94"/>
      <point x="347" y="-101"/>
      <point x="347" y="-111" type="curve" smooth="yes"/>
      <point x="347" y="-182" type="line" smooth="yes"/>
      <point x="347" y="-193"/>
      <point x="363" y="-192"/>
      <point x="363" y="-192" type="curve"/>
      <point x="402" y="-192" type="line" smooth="yes"/>
      <point x="452" y="-192"/>
      <point x="483" y="-269"/>
      <point x="483" y="-345" type="curve" smooth="yes"/>
      <point x="483" y="-449"/>
      <point x="457" y="-486"/>
      <point x="410" y="-486" type="curve" smooth="yes"/>
      <point x="360" y="-486"/>
      <point x="338" y="-444"/>
      <point x="338" y="-395" type="curve" smooth="yes"/>
      <point x="338" y="-378"/>
      <point x="340" y="-365"/>
      <point x="343" y="-347" type="curve" smooth="yes"/>
      <point x="346" y="-327"/>
      <point x="333" y="-311"/>
      <point x="312" y="-311" type="curve" smooth="yes"/>
      <point x="245" y="-311" type="line" smooth="yes"/>
      <point x="226" y="-311"/>
      <point x="205" y="-327"/>
      <point x="201" y="-346" type="curve" smooth="yes"/>
      <point x="197" y="-365"/>
      <point x="195" y="-384"/>
      <point x="195" y="-402" type="curve" smooth="yes"/>
      <point x="195" y="-510"/>
      <point x="289" y="-580"/>
    </contour>
  </outline>
</glyph>
<glyph name="guillemotright" format="1">
  <advance width="1389"/>
  <unicode hex="00BB"/>
  <outline>
    <contour>
      <point x="192" y="169" type="curve" smooth="yes"/>
      <point x="202" y="169"/>
      <point x="212" y="173"/>
      <point x="224" y="179" type="curve" smooth="yes"/>
      <point x="651" y="476" type="line"/>
      <point x="696" y="509"/>
      <point x="723" y="538"/>
      <point x="723" y="588" type="curve" smooth="yes"/>
      <point x="723" y="680" type="line" smooth="yes"/>
      <point x="723" y="730"/>
      <point x="696" y="755"/>
      <point x="651" y="788" type="curve"/>
      <point x="223" y="1096" type="line" smooth="yes"/>
      <point x="212" y="1103"/>
      <point x="200" y="1107"/>
      <point x="192" y="1107" type="curve" smooth="yes"/>
      <point x="165" y="1107"/>
      <point x="146" y="1085"/>
      <point x="146" y="1063" type="curve" smooth="yes"/>
      <point x="146" y="968" type="line" smooth="yes"/>
      <point x="146" y="919"/>
      <point x="167" y="898"/>
      <point x="207" y="866" type="curve"/>
      <point x="504" y="652" type="line"/>
      <point x="511" y="646"/>
      <point x="515" y="639"/>
      <point x="515" y="631" type="curve" smooth="yes"/>
      <point x="515" y="623"/>
      <point x="512" y="617"/>
      <point x="504" y="610" type="curve"/>
      <point x="207" y="398" type="line"/>
      <point x="167" y="366"/>
      <point x="146" y="345"/>
      <point x="146" y="296" type="curve" smooth="yes"/>
      <point x="146" y="213" type="line" smooth="yes"/>
      <point x="146" y="191"/>
      <point x="165" y="169"/>
    </contour>
    <contour>
      <point x="732" y="169" type="curve" smooth="yes"/>
      <point x="742" y="169"/>
      <point x="752" y="173"/>
      <point x="764" y="179" type="curve" smooth="yes"/>
      <point x="1190" y="476" type="line"/>
      <point x="1236" y="509"/>
      <point x="1263" y="538"/>
      <point x="1263" y="588" type="curve" smooth="yes"/>
      <point x="1263" y="680" type="line" smooth="yes"/>
      <point x="1263" y="730"/>
      <point x="1236" y="755"/>
      <point x="1191" y="788" type="curve"/>
      <point x="764" y="1096" type="line" smooth="yes"/>
      <point x="751" y="1103"/>
      <point x="740" y="1107"/>
      <point x="731" y="1107" type="curve" smooth="yes"/>
      <point x="705" y="1107"/>
      <point x="686" y="1085"/>
      <point x="686" y="1063" type="curve" smooth="yes"/>
      <point x="686" y="968" type="line" smooth="yes"/>
      <point x="686" y="919"/>
      <point x="707" y="898"/>
      <point x="748" y="866" type="curve"/>
      <point x="1043" y="652" type="line"/>
      <point x="1051" y="646"/>
      <point x="1055" y="639"/>
      <point x="1055" y="631" type="curve" smooth="yes"/>
      <point x="1055" y="623"/>
      <point x="1051" y="617"/>
      <point x="1043" y="610" type="curve"/>
      <point x="748" y="398" type="line"/>
      <point x="708" y="366"/>
      <point x="686" y="345"/>
      <point x="686" y="296" type="curve" smooth="yes"/>
      <point x="686" y="213" type="line" smooth="yes"/>
      <point x="686" y="191"/>
      <point x="705" y="169"/>
    </contour>
  </outline>
</glyph>
<glyph name="onequarter" format="1">
  <advance width="2816"/>
  <unicode hex="00BC"/>
  <outline>
    <contour>
      <point x="2319" y="-38" type="curve" smooth="yes"/>
      <point x="2443" y="-37" type="line" smooth="yes"/>
      <point x="2473" y="-37"/>
      <point x="2492" y="-18"/>
      <point x="2492" y="12" type="curve" smooth="yes"/>
      <point x="2492" y="171" type="line"/>
      <point x="2648" y="171" type="line" smooth="yes"/>
      <point x="2678" y="171"/>
      <point x="2697" y="190"/>
      <point x="2697" y="220" type="curve" smooth="yes"/>
      <point x="2697" y="287" type="line" smooth="yes"/>
      <point x="2697" y="317"/>
      <point x="2678" y="336"/>
      <point x="2648" y="336" type="curve" smooth="yes"/>
      <point x="2492" y="336" type="line"/>
      <point x="2492" y="958" type="line" smooth="yes"/>
      <point x="2492" y="988"/>
      <point x="2473" y="1007"/>
      <point x="2443" y="1007" type="curve" smooth="yes"/>
      <point x="2319" y="1007" type="line" smooth="yes"/>
      <point x="2289" y="1007"/>
      <point x="2271" y="988"/>
      <point x="2271" y="958" type="curve" smooth="yes"/>
      <point x="2271" y="336" type="line"/>
      <point x="1924" y="336" type="line" smooth="yes"/>
      <point x="1912" y="336"/>
      <point x="1902" y="344"/>
      <point x="1902" y="355" type="curve" smooth="yes"/>
      <point x="1902" y="356"/>
      <point x="1902" y="358"/>
      <point x="1903" y="359" type="curve"/>
      <point x="2071" y="957" type="line"/>
      <point x="2072" y="961"/>
      <point x="2073" y="964"/>
      <point x="2073" y="967" type="curve" smooth="yes"/>
      <point x="2073" y="991"/>
      <point x="2049" y="1007"/>
      <point x="2022" y="1007" type="curve" smooth="yes"/>
      <point x="1868" y="1007" type="line" smooth="yes"/>
      <point x="1838" y="1007"/>
      <point x="1828" y="986"/>
      <point x="1819" y="957" type="curve" smooth="yes"/>
      <point x="1594" y="219" type="line" smooth="yes"/>
      <point x="1592" y="215"/>
      <point x="1592" y="212"/>
      <point x="1592" y="208" type="curve" smooth="yes"/>
      <point x="1592" y="185"/>
      <point x="1616" y="169"/>
      <point x="1643" y="169" type="curve" smooth="yes"/>
      <point x="2271" y="170" type="line"/>
      <point x="2271" y="10" type="line" smooth="yes"/>
      <point x="2271" y="-20"/>
      <point x="2289" y="-38"/>
    </contour>
    <contour>
      <point x="527" y="438" type="curve" smooth="yes"/>
      <point x="544" y="438"/>
      <point x="594" y="450"/>
      <point x="594" y="468" type="curve" smooth="yes"/>
      <point x="607" y="468"/>
      <point x="615" y="1023"/>
      <point x="615" y="1035" type="curve" smooth="yes"/>
      <point x="615" y="1053"/>
      <point x="604" y="1431"/>
      <point x="587" y="1431" type="curve" smooth="yes"/>
      <point x="587" y="1443"/>
      <point x="306" y="1421"/>
      <point x="292" y="1421" type="curve"/>
      <point x="276" y="1421"/>
      <point x="107" y="1395"/>
      <point x="107" y="1377" type="curve"/>
      <point x="93" y="1377"/>
      <point x="86" y="1315"/>
      <point x="86" y="1302" type="curve" smooth="yes"/>
      <point x="86" y="1284"/>
      <point x="97" y="1263"/>
      <point x="113" y="1263" type="curve" smooth="yes"/>
      <point x="113" y="1251"/>
      <point x="212" y="1254"/>
      <point x="226" y="1254" type="curve"/>
      <point x="233" y="1254"/>
      <point x="326" y="1255"/>
      <point x="326" y="1247" type="curve"/>
      <point x="332" y="1247"/>
      <point x="338" y="814"/>
      <point x="338" y="809" type="curve" smooth="yes"/>
      <point x="338" y="791"/>
      <point x="349" y="458"/>
      <point x="365" y="458" type="curve" smooth="yes"/>
      <point x="365" y="446"/>
      <point x="514" y="438"/>
    </contour>
    <contour>
      <point x="750" y="-207" type="curve"/>
      <point x="756" y="-207"/>
      <point x="857" y="-203"/>
      <point x="859" y="-197" type="curve" smooth="yes"/>
      <point x="880" y="-197"/>
      <point x="1383" y="901"/>
      <point x="1377" y="909" type="curve" smooth="yes"/>
      <point x="1378" y="911"/>
      <point x="1743" y="1628"/>
      <point x="1715" y="1630" type="curve" smooth="yes"/>
      <point x="1699" y="1638"/>
      <point x="1676" y="1646"/>
      <point x="1666" y="1646" type="curve" smooth="yes"/>
      <point x="1660" y="1646"/>
      <point x="1560" y="1642"/>
      <point x="1558" y="1636" type="curve" smooth="yes"/>
      <point x="1537" y="1636"/>
      <point x="1033" y="539"/>
      <point x="1041" y="531" type="curve" smooth="yes"/>
      <point x="1039" y="529"/>
      <point x="666" y="-188"/>
      <point x="690" y="-190" type="curve" smooth="yes"/>
      <point x="711" y="-198"/>
      <point x="740" y="-207"/>
    </contour>
  </outline>
</glyph>
<glyph name="Oslash" format="1">
  <advance width="2343"/>
  <unicode hex="00D8"/>
  <outline>
    <contour>
      <point x="1172" y="1438" type="move" name="top"/>
    </contour>
    <contour>
      <point x="866" y="-202" type="line"/>
      <point x="884" y="-202"/>
      <point x="903" y="-189"/>
      <point x="911" y="-169" type="curve" smooth="yes"/>
      <point x="968" y="-32" type="line"/>
      <point x="1036" y="-39"/>
      <point x="1104" y="-41"/>
      <point x="1172" y="-41" type="curve" smooth="yes"/>
      <point x="1651" y="-41"/>
      <point x="2209" y="95"/>
      <point x="2209" y="723" type="curve" smooth="yes"/>
      <point x="2209" y="1143"/>
      <point x="1916" y="1348"/>
      <point x="1574" y="1430" type="curve"/>
      <point x="1645" y="1602" type="line" smooth="yes"/>
      <point x="1651" y="1617"/>
      <point x="1642" y="1635"/>
      <point x="1628" y="1635" type="curve" smooth="yes"/>
      <point x="1505" y="1635" type="line" smooth="yes"/>
      <point x="1486" y="1635"/>
      <point x="1469" y="1622"/>
      <point x="1461" y="1602" type="curve" smooth="yes"/>
      <point x="1402" y="1461" type="line"/>
      <point x="1325" y="1471"/>
      <point x="1247" y="1475"/>
      <point x="1172" y="1475" type="curve" smooth="yes"/>
      <point x="693" y="1475"/>
      <point x="134" y="1304"/>
      <point x="134" y="723" type="curve" smooth="yes"/>
      <point x="134" y="259"/>
      <point x="441" y="64"/>
      <point x="793" y="-7" type="curve"/>
      <point x="726" y="-167" type="line" smooth="yes"/>
      <point x="719" y="-182"/>
      <point x="728" y="-200"/>
      <point x="743" y="-200" type="curve" smooth="yes"/>
    </contour>
    <contour>
      <point x="888" y="230" type="line"/>
      <point x="683" y="286"/>
      <point x="536" y="423"/>
      <point x="536" y="723" type="curve" smooth="yes"/>
      <point x="536" y="1101"/>
      <point x="817" y="1240"/>
      <point x="1172" y="1240" type="curve" smooth="yes"/>
      <point x="1219" y="1240"/>
      <point x="1265" y="1238"/>
      <point x="1310" y="1232" type="curve"/>
    </contour>
    <contour>
      <point x="1172" y="196" type="curve" smooth="yes"/>
      <point x="1134" y="196"/>
      <point x="1097" y="196"/>
      <point x="1062" y="200" type="curve"/>
      <point x="1478" y="1194" type="line"/>
      <point x="1675" y="1127"/>
      <point x="1807" y="980"/>
      <point x="1807" y="723" type="curve" smooth="yes"/>
      <point x="1807" y="295"/>
      <point x="1519" y="196"/>
    </contour>
  </outline>
</glyph>
<glyph name="Thorn" format="1">
  <advance width="2004"/>
  <unicode hex="00DE"/>
  <outline>
    <contour>
      <point x="230" y="0" type="curve" smooth="yes"/>
      <point x="460" y="0" type="line" smooth="yes"/>
      <point x="503" y="0"/>
      <point x="530" y="27"/>
      <point x="530" y="70" type="curve" smooth="yes"/>
      <point x="530" y="288" type="line" smooth="yes"/>
      <point x="530" y="294"/>
      <point x="548" y="314"/>
      <point x="554" y="314" type="curve" smooth="yes"/>
      <point x="600" y="314"/>
      <point x="865" y="314"/>
      <point x="907" y="314" type="curve" smooth="yes"/>
      <point x="1428" y="316"/>
      <point x="1876" y="336"/>
      <point x="1876" y="794" type="curve" smooth="yes"/>
      <point x="1876" y="1226"/>
      <point x="1347" y="1232"/>
      <point x="862" y="1232" type="curve" smooth="yes"/>
      <point x="530" y="1232" type="line"/>
      <point x="530" y="1368" type="line" smooth="yes"/>
      <point x="530" y="1411"/>
      <point x="503" y="1438"/>
      <point x="460" y="1438" type="curve" smooth="yes"/>
      <point x="230" y="1438" type="line" smooth="yes"/>
      <point x="187" y="1438"/>
      <point x="160" y="1411"/>
      <point x="160" y="1368" type="curve" smooth="yes"/>
      <point x="160" y="70" type="line" smooth="yes"/>
      <point x="160" y="27"/>
      <point x="187" y="0"/>
    </contour>
    <contour>
      <point x="552" y="529" type="line"/>
      <point x="546" y="529"/>
      <point x="530" y="549"/>
      <point x="530" y="555" type="curve" smooth="yes"/>
      <point x="530" y="1001" type="line" smooth="yes"/>
      <point x="530" y="1007"/>
      <point x="547" y="1024"/>
      <point x="552" y="1024" type="curve" smooth="yes"/>
      <point x="810" y="1024" type="line" smooth="yes"/>
      <point x="1166" y="1024"/>
      <point x="1503" y="1032"/>
      <point x="1503" y="788" type="curve" smooth="yes"/>
      <point x="1503" y="540"/>
      <point x="1266" y="529"/>
      <point x="881" y="529" type="curve" smooth="yes"/>
    </contour>
  </outline>
</glyph>
<glyph name="ae" format="1">
  <advance width="2859"/>
  <unicode hex="00E6"/>
  <outline>
    <contour>
      <point x="1430" y="1006" type="move" name="top"/>
    </contour>
    <contour>
      <point x="2078" y="-42" type="curve" smooth="yes"/>
      <point x="2217" y="-42"/>
      <point x="2486" y="1"/>
      <point x="2621" y="58" type="curve"/>
      <point x="2655" y="73"/>
      <point x="2670" y="99"/>
      <point x="2666" y="124" type="curve" smooth="yes"/>
      <point x="2662" y="141"/>
      <point x="2645" y="196"/>
      <point x="2640" y="213" type="curve" smooth="yes"/>
      <point x="2631" y="239"/>
      <point x="2600" y="251"/>
      <point x="2558" y="235" type="curve" smooth="yes"/>
      <point x="2478" y="204"/>
      <point x="2283" y="144"/>
      <point x="2120" y="144" type="curve" smooth="yes"/>
      <point x="1774" y="144"/>
      <point x="1633" y="309"/>
      <point x="1633" y="446" type="curve" smooth="yes"/>
      <point x="1633" y="457"/>
      <point x="1639" y="452"/>
      <point x="1652" y="452" type="curve" smooth="yes"/>
      <point x="2620" y="452" type="line" smooth="yes"/>
      <point x="2705" y="452"/>
      <point x="2725" y="505"/>
      <point x="2726" y="534" type="curve" smooth="yes"/>
      <point x="2726" y="538"/>
      <point x="2726" y="577"/>
      <point x="2726" y="581" type="curve" smooth="yes"/>
      <point x="2692" y="853"/>
      <point x="2452" y="1053"/>
      <point x="2044" y="1053" type="curve" smooth="yes"/>
      <point x="1850" y="1053"/>
      <point x="1623" y="989"/>
      <point x="1477" y="859" type="curve"/>
      <point x="1395" y="982"/>
      <point x="1221" y="1053"/>
      <point x="906" y="1053" type="curve" smooth="yes"/>
      <point x="477" y="1053"/>
      <point x="231" y="991"/>
      <point x="176" y="846" type="curve" smooth="yes"/>
      <point x="172" y="834"/>
      <point x="165" y="819"/>
      <point x="165" y="802" type="curve" smooth="yes"/>
      <point x="165" y="786"/>
      <point x="179" y="768"/>
      <point x="195" y="766" type="curve"/>
      <point x="404" y="742" type="line" smooth="yes"/>
      <point x="413" y="741"/>
      <point x="417" y="740"/>
      <point x="423" y="740" type="curve" smooth="yes"/>
      <point x="444" y="740"/>
      <point x="472" y="764"/>
      <point x="493" y="785" type="curve" smooth="yes"/>
      <point x="580" y="870"/>
      <point x="824" y="882"/>
      <point x="908" y="882" type="curve" smooth="yes"/>
      <point x="1250" y="882"/>
      <point x="1297" y="771"/>
      <point x="1297" y="688" type="curve" smooth="yes"/>
      <point x="1297" y="677"/>
      <point x="1295" y="664"/>
      <point x="1295" y="640" type="curve" smooth="yes"/>
      <point x="1295" y="602"/>
      <point x="138" y="662"/>
      <point x="138" y="238" type="curve" smooth="yes"/>
      <point x="140" y="62"/>
      <point x="341" y="-41"/>
      <point x="723" y="-41" type="curve" smooth="yes"/>
      <point x="1046" y="-41"/>
      <point x="1270" y="56"/>
      <point x="1407" y="209" type="curve" smooth="yes"/>
      <point x="1413" y="216"/>
      <point x="1419" y="220"/>
      <point x="1424" y="223" type="curve"/>
      <point x="1429" y="221"/>
      <point x="1433" y="217"/>
      <point x="1437" y="212" type="curve" smooth="yes"/>
      <point x="1581" y="23"/>
      <point x="1818" y="-42"/>
    </contour>
    <contour>
      <point x="766" y="128" type="curve" smooth="yes"/>
      <point x="549" y="128"/>
      <point x="475" y="175"/>
      <point x="474" y="258" type="curve" smooth="yes"/>
      <point x="474" y="378"/>
      <point x="692" y="437"/>
      <point x="1195" y="477" type="curve" smooth="yes"/>
      <point x="1200" y="478"/>
      <point x="1282" y="485"/>
      <point x="1285" y="485" type="curve" smooth="yes"/>
      <point x="1301" y="485"/>
      <point x="1302" y="476"/>
      <point x="1302" y="462" type="curve" smooth="yes"/>
      <point x="1302" y="254"/>
      <point x="1048" y="128"/>
    </contour>
    <contour>
      <point x="1645" y="598" type="line"/>
      <point x="1636" y="598"/>
      <point x="1636" y="606"/>
      <point x="1636" y="613" type="curve" smooth="yes"/>
      <point x="1663" y="789"/>
      <point x="1854" y="877"/>
      <point x="2046" y="877" type="curve" smooth="yes"/>
      <point x="2318" y="877"/>
      <point x="2398" y="737"/>
      <point x="2436" y="608" type="curve"/>
      <point x="2436" y="603"/>
      <point x="2437" y="598"/>
      <point x="2433" y="598" type="curve" smooth="yes"/>
    </contour>
  </outline>
</glyph>
<glyph name="divide" format="1">
  <advance width="1279"/>
  <unicode hex="00F7"/>
  <outline>
    <contour>
      <point x="577" y="10" type="curve" smooth="yes"/>
      <point x="713" y="10" type="line" smooth="yes"/>
      <point x="756" y="10"/>
      <point x="790" y="44"/>
      <point x="790" y="87" type="curve" smooth="yes"/>
      <point x="790" y="217" type="line" smooth="yes"/>
      <point x="790" y="260"/>
      <point x="756" y="294"/>
      <point x="713" y="294" type="curve" smooth="yes"/>
      <point x="577" y="294" type="line" smooth="yes"/>
      <point x="534" y="294"/>
      <point x="500" y="260"/>
      <point x="500" y="217" type="curve" smooth="yes"/>
      <point x="500" y="87" type="line" smooth="yes"/>
      <point x="500" y="44"/>
      <point x="534" y="10"/>
    </contour>
    <contour>
      <point x="187" y="437" type="curve" smooth="yes"/>
      <point x="1091" y="437" type="line" smooth="yes"/>
      <point x="1134" y="437"/>
      <point x="1158" y="461"/>
      <point x="1158" y="504" type="curve" smooth="yes"/>
      <point x="1158" y="521"/>
      <point x="1158" y="372"/>
      <point x="1158" y="566" type="curve" smooth="yes"/>
      <point x="1158" y="609"/>
      <point x="1134" y="633"/>
      <point x="1091" y="633" type="curve" smooth="yes"/>
      <point x="187" y="633" type="line" smooth="yes"/>
      <point x="144" y="633"/>
      <point x="120" y="609"/>
      <point x="120" y="566" type="curve" smooth="yes"/>
      <point x="120" y="504" type="line" smooth="yes"/>
      <point x="120" y="461"/>
      <point x="144" y="437"/>
    </contour>
    <contour>
      <point x="577" y="750" type="curve" smooth="yes"/>
      <point x="713" y="750" type="line" smooth="yes"/>
      <point x="756" y="750"/>
      <point x="790" y="784"/>
      <point x="790" y="827" type="curve" smooth="yes"/>
      <point x="790" y="957" type="line" smooth="yes"/>
      <point x="790" y="1000"/>
      <point x="756" y="1034"/>
      <point x="713" y="1034" type="curve" smooth="yes"/>
      <point x="577" y="1034" type="line" smooth="yes"/>
      <point x="534" y="1034"/>
      <point x="500" y="1000"/>
      <point x="500" y="957" type="curve" smooth="yes"/>
      <point x="500" y="827" type="line" smooth="yes"/>
      <point x="500" y="784"/>
      <point x="534" y="750"/>
    </contour>
  </outline>
</glyph>
<glyph name="OE" format="1">
  <advance width="2927"/>
  <unicode hex="0152"/>
  <outline>
    <contour>
      <point x="1464" y="1438" type="move" name="top"/>
    </contour>
    <contour>
      <point x="1284" y="-1" type="curve" smooth="yes"/>
      <point x="1656" y="-1"/>
      <point x="1814" y="0"/>
      <point x="2719" y="0" type="curve" smooth="yes"/>
      <point x="2762" y="0"/>
      <point x="2788" y="34"/>
      <point x="2788" y="77" type="curve" smooth="yes"/>
      <point x="2788" y="149" type="line" smooth="yes"/>
      <point x="2788" y="192"/>
      <point x="2762" y="225"/>
      <point x="2719" y="225" type="curve" smooth="yes"/>
      <point x="1744" y="225" type="line" smooth="yes"/>
      <point x="1738" y="225"/>
      <point x="1724" y="242"/>
      <point x="1724" y="248" type="curve" smooth="yes"/>
      <point x="1724" y="615" type="line" smooth="yes"/>
      <point x="1724" y="621"/>
      <point x="1743" y="638"/>
      <point x="1748" y="638" type="curve" smooth="yes"/>
      <point x="2564" y="638" type="line" smooth="yes"/>
      <point x="2607" y="638"/>
      <point x="2634" y="672"/>
      <point x="2634" y="715" type="curve" smooth="yes"/>
      <point x="2634" y="763" type="line" smooth="yes"/>
      <point x="2634" y="806"/>
      <point x="2607" y="840"/>
      <point x="2564" y="840" type="curve" smooth="yes"/>
      <point x="1744" y="840" type="line" smooth="yes"/>
      <point x="1738" y="840"/>
      <point x="1724" y="864"/>
      <point x="1724" y="870" type="curve" smooth="yes"/>
      <point x="1724" y="1183" type="line" smooth="yes"/>
      <point x="1724" y="1203"/>
      <point x="1733" y="1211"/>
      <point x="1753" y="1211" type="curve" smooth="yes"/>
      <point x="2697" y="1211" type="line" smooth="yes"/>
      <point x="2740" y="1211"/>
      <point x="2767" y="1245"/>
      <point x="2767" y="1288" type="curve" smooth="yes"/>
      <point x="2767" y="1361" type="line" smooth="yes"/>
      <point x="2767" y="1404"/>
      <point x="2739" y="1438"/>
      <point x="2697" y="1438" type="curve" smooth="yes"/>
      <point x="1261" y="1438" type="line" smooth="yes"/>
      <point x="740" y="1438"/>
      <point x="132" y="1295"/>
      <point x="132" y="723" type="curve" smooth="yes"/>
      <point x="132" y="95"/>
      <point x="781" y="-1"/>
    </contour>
    <contour>
      <point x="1226" y="230" type="line"/>
      <point x="876" y="230"/>
      <point x="533" y="318"/>
      <point x="533" y="723" type="curve" smooth="yes"/>
      <point x="533" y="1084"/>
      <point x="821" y="1209"/>
      <point x="1227" y="1209" type="curve" smooth="yes"/>
      <point x="1316" y="1209" type="line" smooth="yes"/>
      <point x="1321" y="1209"/>
      <point x="1341" y="1192"/>
      <point x="1341" y="1186" type="curve" smooth="yes"/>
      <point x="1341" y="254" type="line" smooth="yes"/>
      <point x="1341" y="248"/>
      <point x="1327" y="230"/>
      <point x="1322" y="230" type="curve" smooth="yes"/>
    </contour>
  </outline>
</glyph>
<glyph name="ogonek" format="1">
  <advance width="716"/>
  <unicode hex="02DB"/>
  <outline>
    <contour>
      <point x="495" y="10" type="move" name="_ogonek"/>
    </contour>
    <contour>
      <point x="413" y="-371" type="curve" smooth="yes"/>
      <point x="479" y="-371" type="line" smooth="yes"/>
      <point x="492" y="-371"/>
      <point x="495" y="-364"/>
      <point x="495" y="-354" type="curve" smooth="yes"/>
      <point x="495" y="-283" type="line" smooth="yes"/>
      <point x="495" y="-272"/>
      <point x="479" y="-273"/>
      <point x="479" y="-273" type="curve"/>
      <point x="460" y="-273" type="line" smooth="yes"/>
      <point x="371" y="-273"/>
      <point x="359" y="-196"/>
      <point x="359" y="-120" type="curve" smooth="yes"/>
      <point x="359" y="-31"/>
      <point x="385" y="0"/>
      <point x="432" y="0" type="curve"/>
      <point x="435" y="45" type="line"/>
      <point x="293" y="45"/>
      <point x="182" y="-22"/>
      <point x="182" y="-194" type="curve" smooth="yes"/>
      <point x="182" y="-276"/>
      <point x="255" y="-371"/>
    </contour>
  </outline>
</glyph>
<glyph name="emdash" format="1">
  <advance width="2048"/>
  <unicode hex="2014"/>
  <outline>
    <contour>
      <point x="173" y="464" type="curve" smooth="yes"/>
      <point x="1870" y="464" type="line" smooth="yes"/>
      <point x="1905" y="464"/>
      <point x="1923" y="489"/>
      <point x="1923" y="530" type="curve" smooth="yes"/>
      <point x="1923" y="626" type="line" smooth="yes"/>
      <point x="1923" y="664"/>
      <point x="1905" y="687"/>
      <point x="1870" y="687" type="curve" smooth="yes"/>
      <point x="173" y="687" type="line" smooth="yes"/>
      <point x="141" y="687"/>
      <point x="124" y="666"/>
      <point x="124" y="630" type="curve" smooth="yes"/>
      <point x="124" y="524" type="line" smooth="yes"/>
      <point x="124" y="486"/>
      <point x="141" y="464"/>
    </contour>
  </outline>
</glyph>
<glyph name="perthousand" format="1">
  <advance width="3505"/>
  <unicode hex="2030"/>
  <outline>
    <contour>
      <point x="839" y="-82" type="curve" smooth="yes"/>
      <point x="908" y="-82" type="line" smooth="yes"/>
      <point x="954" y="-82"/>
      <point x="997" y="-54"/>
      <point x="1016" y="-12" type="curve" smooth="yes"/>
      <point x="1670" y="1466" type="line" smooth="yes"/>
      <point x="1685" y="1499"/>
      <point x="1661" y="1536"/>
      <point x="1624" y="1536" type="curve" smooth="yes"/>
      <point x="1556" y="1536" type="line" smooth="yes"/>
      <point x="1510" y="1536"/>
      <point x="1466" y="1508"/>
      <point x="1448" y="1466" type="curve" smooth="yes"/>
      <point x="793" y="-12" type="line" smooth="yes"/>
      <point x="778" y="-45"/>
      <point x="802" y="-82"/>
    </contour>
    <contour>
      <point x="519" y="751" type="curve" smooth="yes"/>
      <point x="368" y="751"/>
      <point x="279" y="863"/>
      <point x="279" y="1047" type="curve" smooth="yes"/>
      <point x="279" y="1235"/>
      <point x="365" y="1345"/>
      <point x="519" y="1345" type="curve" smooth="yes"/>
      <point x="679" y="1345"/>
      <point x="760" y="1235"/>
      <point x="760" y="1047" type="curve" smooth="yes"/>
      <point x="760" y="863"/>
      <point x="677" y="751"/>
    </contour>
    <contour>
      <point x="519" y="599" type="curve" smooth="yes"/>
      <point x="816" y="599"/>
      <point x="967" y="809"/>
      <point x="967" y="1047" type="curve" smooth="yes"/>
      <point x="967" y="1283"/>
      <point x="820" y="1497"/>
      <point x="519" y="1497" type="curve" smooth="yes"/>
      <point x="218" y="1497"/>
      <point x="70" y="1283"/>
      <point x="70" y="1047" type="curve" smooth="yes"/>
      <point x="70" y="809"/>
      <point x="222" y="599"/>
    </contour>
    <contour>
      <point x="1946" y="139" type="curve" smooth="yes"/>
      <point x="1795" y="139"/>
      <point x="1705" y="250"/>
      <point x="1705" y="434" type="curve" smooth="yes"/>
      <point x="1705" y="622"/>
      <point x="1792" y="732"/>
      <point x="1946" y="732" type="curve" smooth="yes"/>
      <point x="2106" y="732"/>
      <point x="2186" y="622"/>
      <point x="2186" y="434" type="curve" smooth="yes"/>
      <point x="2186" y="250"/>
      <point x="2104" y="139"/>
    </contour>
    <contour>
      <point x="1946" y="-13" type="curve" smooth="yes"/>
      <point x="2243" y="-13"/>
      <point x="2394" y="197"/>
      <point x="2394" y="434" type="curve" smooth="yes"/>
      <point x="2394" y="670"/>
      <point x="2247" y="884"/>
      <point x="1946" y="884" type="curve" smooth="yes"/>
      <point x="1645" y="884"/>
      <point x="1497" y="670"/>
      <point x="1497" y="434" type="curve" smooth="yes"/>
      <point x="1497" y="197"/>
      <point x="1649" y="-13"/>
    </contour>
    <contour>
      <point x="2987" y="139" type="curve" smooth="yes"/>
      <point x="2835" y="139"/>
      <point x="2746" y="250"/>
      <point x="2746" y="434" type="curve" smooth="yes"/>
      <point x="2746" y="622"/>
      <point x="2833" y="732"/>
      <point x="2987" y="732" type="curve" smooth="yes"/>
      <point x="3147" y="732"/>
      <point x="3227" y="622"/>
      <point x="3227" y="434" type="curve" smooth="yes"/>
      <point x="3227" y="250"/>
      <point x="3144" y="139"/>
    </contour>
    <contour>
      <point x="2987" y="-13" type="curve" smooth="yes"/>
      <point x="3284" y="-13"/>
      <point x="3435" y="197"/>
      <point x="3435" y="434" type="curve" smooth="yes"/>
      <point x="3435" y="670"/>
      <point x="3288" y="884"/>
      <point x="2987" y="884" type="curve" smooth="yes"/>
      <point x="2686" y="884"/>
      <point x="2538" y="670"/>
      <point x="2538" y="434" type="curve" smooth="yes"/>
      <point x="2538" y="197"/>
      <point x="2690" y="-13"/>
    </contour>
  </outline>
</glyph>
<glyph name="uniFB04" format="1">
  <advance width="2779"/>
  <outline>
    <contour>
      <point x="440" y="0" type="curve" smooth="yes"/>
      <point x="626" y="0" type="line" smooth="yes"/>
      <point x="669" y="0"/>
      <point x="703" y="34"/>
      <point x="703" y="77" type="curve" smooth="yes"/>
      <point x="703" y="800" type="line" smooth="yes"/>
      <point x="703" y="820"/>
      <point x="706" y="837"/>
      <point x="726" y="837" type="curve" smooth="yes"/>
      <point x="1277" y="837" type="line" smooth="yes"/>
      <point x="1297" y="837"/>
      <point x="1297" y="820"/>
      <point x="1297" y="800" type="curve" smooth="yes"/>
      <point x="1297" y="77" type="line" smooth="yes"/>
      <point x="1297" y="34"/>
      <point x="1332" y="0"/>
      <point x="1375" y="0" type="curve" smooth="yes"/>
      <point x="1560" y="0" type="line" smooth="yes"/>
      <point x="1603" y="0"/>
      <point x="1638" y="34"/>
      <point x="1638" y="77" type="curve" smooth="yes"/>
      <point x="1638" y="800" type="line" smooth="yes"/>
      <point x="1638" y="820"/>
      <point x="1640" y="837"/>
      <point x="1660" y="837" type="curve" smooth="yes"/>
      <point x="2045" y="837" type="line" smooth="yes"/>
      <point x="2088" y="837"/>
      <point x="2113" y="846"/>
      <point x="2113" y="889" type="curve" smooth="yes"/>
      <point x="2113" y="951" type="line" smooth="yes"/>
      <point x="2113" y="994"/>
      <point x="2088" y="1006"/>
      <point x="2045" y="1006" type="curve" smooth="yes"/>
      <point x="1647" y="1006" type="line" smooth="yes"/>
      <point x="1640" y="1006"/>
      <point x="1638" y="1013"/>
      <point x="1638" y="1016" type="curve" smooth="yes"/>
      <point x="1638" y="1061" type="line" smooth="yes"/>
      <point x="1638" y="1185"/>
      <point x="1713" y="1279"/>
      <point x="1989" y="1279" type="curve" smooth="yes"/>
      <point x="2068" y="1279"/>
      <point x="2204" y="1267"/>
      <point x="2287" y="1258" type="curve"/>
      <point x="2287" y="70" type="line" smooth="yes"/>
      <point x="2287" y="27"/>
      <point x="2314" y="0"/>
      <point x="2357" y="0" type="curve" smooth="yes"/>
      <point x="2549" y="0" type="line" smooth="yes"/>
      <point x="2592" y="0"/>
      <point x="2619" y="27"/>
      <point x="2619" y="70" type="curve" smooth="yes"/>
      <point x="2619" y="1338" type="line" smooth="yes"/>
      <point x="2619" y="1381"/>
      <point x="2593" y="1401"/>
      <point x="2549" y="1408" type="curve" smooth="yes"/>
      <point x="2355" y="1448"/>
      <point x="2204" y="1475"/>
      <point x="1895" y="1475" type="curve" smooth="yes"/>
      <point x="1599" y="1475"/>
      <point x="1306" y="1376"/>
      <point x="1299" y="1042" type="curve" smooth="yes"/>
      <point x="1298" y="1020"/>
      <point x="1297" y="1006"/>
      <point x="1275" y="1006" type="curve" smooth="yes"/>
      <point x="713" y="1006" type="line" smooth="yes"/>
      <point x="705" y="1006"/>
      <point x="703" y="1013"/>
      <point x="703" y="1016" type="curve" smooth="yes"/>
      <point x="703" y="1061" type="line" smooth="yes"/>
      <point x="703" y="1185"/>
      <point x="760" y="1279"/>
      <point x="963" y="1279" type="curve" smooth="yes"/>
      <point x="1029" y="1279"/>
      <point x="1165" y="1252"/>
      <point x="1170" y="1252" type="curve" smooth="yes"/>
      <point x="1204" y="1252"/>
      <point x="1211" y="1260"/>
      <point x="1211" y="1297" type="curve" smooth="yes"/>
      <point x="1211" y="1384" type="line" smooth="yes"/>
      <point x="1211" y="1412"/>
      <point x="1189" y="1431"/>
      <point x="1161" y="1438" type="curve"/>
      <point x="1115" y="1446"/>
      <point x="988" y="1475"/>
      <point x="868" y="1475" type="curve" smooth="yes"/>
      <point x="618" y="1475"/>
      <point x="371" y="1376"/>
      <point x="364" y="1042" type="curve" smooth="yes"/>
      <point x="364" y="1020"/>
      <point x="363" y="1006"/>
      <point x="341" y="1006" type="curve" smooth="yes"/>
      <point x="191" y="1006" type="line" smooth="yes"/>
      <point x="148" y="1006"/>
      <point x="124" y="988"/>
      <point x="124" y="945" type="curve" smooth="yes"/>
      <point x="124" y="889" type="line" smooth="yes"/>
      <point x="124" y="846"/>
      <point x="148" y="837"/>
      <point x="191" y="837" type="curve" smooth="yes"/>
      <point x="343" y="837" type="line" smooth="yes"/>
      <point x="363" y="837"/>
      <point x="363" y="820"/>
      <point x="363" y="800" type="curve" smooth="yes"/>
      <point x="363" y="77" type="line" smooth="yes"/>
      <point x="363" y="34"/>
      <point x="397" y="0"/>
    </contour>
  </outline>
</glyph>
